# Blender v2.77 (sub 0) OBJ File: 'LowPoly_Level_Kit_Rocks.blend'
# www.blender.org
g Pyramid
v -73.000000 0.000000 73.000000
v -0.420480 80.000000 0.420480
v -73.000000 0.000000 -73.000000
v -0.420480 80.000000 -0.420480
v 73.000000 0.000000 73.000000
v 0.420480 80.000000 0.420480
v 73.000000 0.000000 -73.000000
v 0.420480 80.000000 -0.420480
vt 0.0614 0.4414
vt 0.0224 0.4009
vt 0.0617 0.4403
vt 0.0625 0.4416
vt 0.0224 0.4807
vt 0.0628 0.4405
vt 0.1018 0.4809
vt 0.1018 0.4012
vn -0.7406 0.6719 0.0000
vn 0.0000 0.6719 -0.7406
vn 0.7406 0.6719 0.0000
vn 0.0000 0.6719 0.7406
vn 0.0000 1.0000 0.0000
s off
f 4/1/1 1/2/1 2/3/1
f 8/4/2 3/5/2 4/1/2
f 6/6/3 7/7/3 8/4/3
f 2/3/4 5/8/4 6/6/4
f 8/4/5 2/3/5 6/6/5
f 4/1/1 3/5/1 1/2/1
f 8/4/2 7/7/2 3/5/2
f 6/6/3 5/8/3 7/7/3
f 2/3/4 1/2/4 5/8/4
f 8/4/5 4/1/5 2/3/5
