# This file uses centimeters as units for non-parametric coordinates.

g default
v 0.008771 -1.507469 1.875907
v 0.007146 -1.433826 1.904829
v -0.059463 -1.433453 1.903823
v -0.060242 -1.506826 1.875131
v 1.938649 -2.049718 -0.008234
v 1.977924 -1.977496 -0.002425
v 1.975557 -1.958506 0.065217
v 1.951114 -2.023835 0.062531
v -0.035339 10.056332 0.891322
v -0.034222 9.989627 0.919952
v 0.034063 9.989611 0.919950
v 0.035336 10.056341 0.891317
v 0.891327 10.056325 0.035339
v 0.920034 9.989638 0.034232
v 0.920032 9.989620 -0.034053
v 0.891321 10.056334 -0.035336
v -0.891327 10.056322 -0.035339
v -0.920040 9.989638 -0.034232
v -0.920039 9.989620 0.034052
v -0.891321 10.056334 0.035336
v 0.035339 10.056345 -0.891310
v 0.034216 9.989599 -0.919744
v -0.034069 9.989586 -0.919743
v -0.035337 10.056355 -0.891305
v -1.952144 -1.999759 0.001502
v -1.976556 -1.934355 0.003469
v -1.976942 -1.953191 -0.064230
v -1.937716 -2.025821 -0.068860
v -0.009373 -2.550258 -1.887422
v -0.008174 -2.488246 -1.920691
v 0.060396 -2.488776 -1.919727
v 0.060996 -2.550766 -1.886028
v -0.034740 11.172295 0.034740
v 0.034740 11.172295 0.034740
v 0.034740 11.172295 -0.034740
v -0.034740 11.172295 -0.034740
v 0.035337 -3.795745 -0.038630
v 0.036029 -3.782171 0.031718
v -0.035066 -3.785074 0.029248
v -0.034134 -3.795382 -0.039805
vt 0.381274 0.998017
vt 0.381447 0.000000
vt 0.379528 0.000751
vt 0.368577 0.000000
vt 0.370475 0.000752
vt 0.129424 0.000767
vt 0.131119 0.000000
vt 0.619000 0.998127
vt 0.500254 0.879269
vt 0.625000 0.995500
vt 0.622693 0.992769
vt 0.625000 0.754564
vt 0.629649 0.000747
vt 0.375000 0.259567
vt 0.378211 0.262500
vt 0.375000 0.490474
vt 0.383975 0.249240
vt 0.616826 0.249238
vt 0.500000 0.365868
vt 0.636940 0.250000
vt 0.633975 0.249275
vt 0.866801 0.249276
vt 0.861134 0.250000
vt 0.378211 0.487501
vt 0.490868 0.375000
vt 0.387499 0.496790
vt 0.375000 0.500000
vt 0.383974 0.500727
vt 0.375000 0.747748
vt 0.612498 0.496787
vt 0.500000 0.384132
vt 0.509132 0.375000
vt 0.625000 0.500000
vt 0.625000 0.748383
vt 0.495930 0.874770
vt 0.379657 0.749250
vt 0.620740 0.749239
vt 0.622716 0.756658
vt 0.504662 0.874656
vt 0.500358 0.870341
vt 0.620570 0.000768
vt 0.616794 0.500722
vt 0.870753 0.000760
vt 0.366026 0.249240
vt 0.133173 0.249241
vt 0.387500 0.253212
vt 0.612501 0.253210
vt 0.621789 0.262499
vt 0.621788 0.487499
vt 0.376863 0.755991
vt 0.376973 0.993756
vt 0.382225 0.752299
vt 0.618369 0.752273
vt 0.376884 0.000274
vt 0.622609 0.000312
vt 0.618879 0.000000
vt 0.619184 0.250000
vt 0.623161 0.749309
vn -0.007836 -0.629682 0.776814
vn -0.007836 -0.629682 0.776814
vn -0.007836 -0.629682 0.776814
vn -0.007836 -0.629682 0.776814
vn 0.618088 -0.269445 0.738489
vn 0.618088 -0.269445 0.738489
vn 0.618088 -0.269445 0.738489
vn 0.618088 -0.269445 0.738489
vn -0.007172 0.085869 0.996281
vn -0.007172 0.085869 0.996281
vn -0.007172 0.085869 0.996281
vn -0.007172 0.085869 0.996281
vn -0.641890 -0.268030 0.718427
vn -0.641889 -0.268030 0.718427
vn -0.641890 -0.268030 0.718427
vn -0.641889 -0.268030 0.718427
vn 0.668077 -0.730424 0.141962
vn 0.668077 -0.730424 0.141962
vn 0.668077 -0.730424 0.141962
vn 0.668077 -0.730425 0.141962
vn 0.709617 -0.333466 -0.620681
vn 0.709617 -0.333466 -0.620681
vn 0.709617 -0.333466 -0.620681
vn 0.709617 -0.333466 -0.620681
vn 0.996104 0.088040 0.005020
vn 0.996104 0.088040 0.005020
vn 0.996104 0.088040 0.005020
vn 0.996104 0.088040 0.005020
vn -0.000013 0.608884 0.793259
vn -0.000013 0.608884 0.793259
vn -0.000013 0.608884 0.793259
vn -0.000013 0.608884 0.793259
vn -0.678917 0.279597 0.678894
vn -0.678917 0.279597 0.678894
vn -0.678917 0.279597 0.678894
vn -0.678917 0.279597 0.678894
vn 0.678841 0.279665 0.678942
vn 0.678841 0.279665 0.678942
vn 0.678841 0.279665 0.678942
vn 0.678841 0.279665 0.678942
vn 0.793260 0.608884 0.000010
vn 0.793260 0.608884 0.000010
vn 0.793260 0.608884 0.000010
vn 0.793260 0.608884 0.000010
vn 0.679100 0.278544 -0.679145
vn 0.679100 0.278544 -0.679145
vn 0.679100 0.278544 -0.679145
vn 0.679099 0.278544 -0.679145
vn -0.793260 0.608883 -0.000010
vn -0.793260 0.608883 -0.000010
vn -0.793260 0.608883 -0.000010
vn -0.793260 0.608883 -0.000010
vn -0.678990 0.278735 -0.679176
vn -0.678989 0.278735 -0.679176
vn -0.678989 0.278735 -0.679176
vn -0.678989 0.278735 -0.679176
vn -0.996057 0.088225 -0.009367
vn -0.996057 0.088225 -0.009367
vn -0.996057 0.088225 -0.009367
vn -0.996057 0.088225 -0.009367
vn 0.000015 0.608883 -0.793260
vn 0.000015 0.608883 -0.793260
vn 0.000015 0.608883 -0.793260
vn 0.000015 0.608883 -0.793260
vn 0.007317 0.079934 -0.996773
vn 0.007317 0.079934 -0.996773
vn 0.007317 0.079934 -0.996773
vn 0.007317 0.079934 -0.996773
vn -0.677591 -0.726416 0.114848
vn -0.677591 -0.726416 0.114848
vn -0.677591 -0.726416 0.114848
vn -0.677591 -0.726416 0.114848
vn -0.693376 -0.331881 -0.639597
vn -0.693376 -0.331881 -0.639597
vn -0.693376 -0.331881 -0.639597
vn -0.693376 -0.331881 -0.639597
vn 0.005100 -0.829289 -0.558796
vn 0.005100 -0.829290 -0.558796
vn 0.005100 -0.829290 -0.558796
vn 0.005100 -0.829290 -0.558796
vn 0.695162 0.061725 0.716198
vn 0.695162 0.061725 0.716198
vn 0.695162 0.061725 0.716198
vn 0.695162 0.061725 0.716198
vn -0.621372 0.477280 0.621370
vn -0.621372 0.477280 0.621370
vn -0.621372 0.477280 0.621370
vn -0.685657 0.059575 -0.725482
vn -0.685657 0.059575 -0.725482
vn -0.685657 0.059575 -0.725483
vn -0.685657 0.059575 -0.725482
vn 0.612120 -0.659670 -0.436056
vn 0.612120 -0.659670 -0.436056
vn 0.612120 -0.659670 -0.436056
vn 0.700397 0.059236 -0.711291
vn 0.700397 0.059236 -0.711291
vn 0.700397 0.059236 -0.711291
vn 0.700397 0.059236 -0.711291
vn -0.709170 0.061536 0.702347
vn -0.709170 0.061536 0.702347
vn -0.709170 0.061536 0.702347
vn -0.709170 0.061536 0.702347
vn 0.621371 0.477280 0.621371
vn 0.621371 0.477280 0.621370
vn 0.621371 0.477280 0.621371
vn 0.621372 0.477279 -0.621371
vn 0.621372 0.477279 -0.621371
vn 0.621372 0.477279 -0.621371
vn -0.621372 0.477279 -0.621371
vn -0.621372 0.477279 -0.621371
vn -0.621372 0.477279 -0.621371
vn 0.489885 -0.545474 0.680052
vn 0.489886 -0.545474 0.680052
vn 0.489886 -0.545474 0.680052
vn -0.515241 -0.542962 0.663114
vn -0.515241 -0.542962 0.663114
vn -0.515241 -0.542962 0.663114
vn -0.603994 -0.657143 -0.450949
vn -0.603994 -0.657143 -0.450949
vn -0.603994 -0.657143 -0.450949
vn -0.014966 -0.364903 0.930925
vn -0.014966 -0.364903 0.930925
vn -0.014966 -0.364903 0.930925
vn -0.014966 -0.364903 0.930925
vn 0.903388 -0.422873 0.071194
vn 0.903388 -0.422873 0.071194
vn 0.903388 -0.422873 0.071194
vn 0.903388 -0.422873 0.071194
vn 0.000062 0.394358 0.918957
vn 0.000062 0.394358 0.918957
vn 0.000062 0.394358 0.918957
vn 0.000062 0.394358 0.918957
vn 0.918528 0.395355 -0.000077
vn 0.918528 0.395355 -0.000077
vn 0.918528 0.395355 -0.000077
vn 0.918528 0.395355 -0.000077
vn -0.918495 0.395432 0.000072
vn -0.918495 0.395432 0.000072
vn -0.918495 0.395432 0.000072
vn -0.918495 0.395432 0.000072
vn -0.000048 0.391887 -0.920013
vn -0.000048 0.391887 -0.920013
vn -0.000048 0.391887 -0.920013
vn -0.000048 0.391887 -0.920013
vn -0.906431 -0.420014 0.044402
vn -0.906431 -0.420014 0.044402
vn -0.906431 -0.420014 0.044402
vn -0.906431 -0.420014 0.044402
vn 0.011380 -0.475206 -0.879801
vn 0.011380 -0.475206 -0.879801
vn 0.011380 -0.475206 -0.879801
vn 0.011380 -0.475206 -0.879801
vn 0.000000 1.000000 0.000000
vn 0.000000 1.000000 0.000000
vn 0.000000 1.000000 0.000000
vn 0.000000 1.000000 0.000000
vn 0.013435 -0.985547 0.168869
vn 0.013435 -0.985547 0.168869
vn 0.013435 -0.985547 0.168869
vn 0.013435 -0.985547 0.168869
s off
g pCube1
f 1/1/1 4/51/2 39/35/3 38/9/4
f 2/3/5 1/2/6 8/56/7 7/41/8
f 3/5/9 2/3/10 11/17/11 10/44/12
f 4/4/13 3/5/14 26/6/15 25/7/16
f 5/11/17 8/8/18 38/9/19 37/39/20
f 6/10/21 5/11/22 32/38/23 31/12/24
f 7/41/25 6/13/26 15/21/27 14/18/28
f 9/15/29 12/46/30 34/19/31 33/25/32
f 10/14/33 9/15/34 20/24/35 19/16/36
f 12/46/37 11/17/38 14/18/39 13/47/40
f 13/47/41 16/48/42 35/32/43 34/19/44
f 16/20/45 15/21/46 22/22/47 21/23/48
f 17/26/49 20/24/50 33/25/51 36/31/52
f 18/28/53 17/26/54 24/30/55 23/42/56
f 19/27/57 18/28/58 27/36/59 26/29/60
f 21/49/61 24/30/62 36/31/63 35/32/64
f 23/42/65 22/33/66 31/34/67 30/37/68
f 25/50/69 28/52/70 40/40/71 39/35/72
f 28/52/73 27/36/74 30/37/75 29/53/76
f 29/53/77 32/38/78 37/39/79 40/40/80
f 2/3/81 7/41/82 14/18/83 11/17/84
f 9/15/85 33/25/86 20/24/87
f 18/28/88 23/42/89 30/37/90 27/36/91
f 37/39/92 32/38/93 5/11/94
f 6/13/95 31/43/96 22/22/97 15/21/98
f 26/6/99 3/5/100 10/44/101 19/45/102
f 12/46/103 13/47/104 34/19/105
f 35/32/106 16/48/107 21/49/108
f 17/26/109 36/31/110 24/30/111
f 1/1/112 38/9/113 8/8/114
f 25/50/115 39/35/116 4/51/117
f 28/52/118 29/53/119 40/40/120
f 1/2/121 2/3/122 3/5/123 4/54/124
f 5/55/125 6/13/126 7/41/127 8/56/128
f 9/15/129 10/44/130 11/17/131 12/46/132
f 13/47/133 14/18/134 15/21/135 16/57/136
f 17/26/137 18/28/138 19/16/139 20/24/140
f 21/49/141 22/33/142 23/42/143 24/30/144
f 25/50/145 26/29/146 27/36/147 28/52/148
f 29/53/149 30/37/150 31/34/151 32/58/152
f 33/25/153 34/19/154 35/32/155 36/31/156
f 37/39/157 38/9/158 39/35/159 40/40/160
